<?xml version="1.0" encoding="iso-8859-1"?>
<!-- Uploaded to: SVG Repo, www.svgrepo.com, Generator: SVG Repo Mixer Tools -->
<svg height="800px" width="800px" version="1.1" id="Layer_1" xmlns="http://www.w3.org/2000/svg" xmlns:xlink="http://www.w3.org/1999/xlink" 
	 viewBox="0 0 512.002 512.002" xml:space="preserve">
<path style="fill:#EFBA50;" d="M410.522,360.975l-54.667-94.595c-3.551,2.258-7.763,3.571-12.284,3.571
	c-4.521,0-8.732-1.313-12.284-3.571l-54.667,94.595c-0.952,1.647-0.952,3.676,0,5.324c0.952,1.648,2.71,2.661,4.614,2.661h124.673
	c1.904,0,3.662-1.015,4.614-2.661C411.474,364.652,411.474,362.622,410.522,360.975z"/>
<g>
	<ellipse style="fill:#53E7D3;" cx="343.573" cy="168.281" rx="33.562" ry="33.531"/>
	<ellipse style="fill:#53E7D3;" cx="168.428" cy="41.372" rx="33.562" ry="33.531"/>
</g>
<g>
	<path style="fill:#E3DAB3;" d="M110.867,242.049c-13.835,14.355-22.359,33.857-22.359,55.359c0,44.097,35.783,79.845,79.922,79.845
		s79.922-35.747,79.922-79.845c0-21.502-8.523-41.004-22.359-55.359H110.867z"/>
	<path style="fill:#E3DAB3;" d="M401.134,368.96H286.007c-13.835,14.355-22.359,33.857-22.359,55.359
		c0,44.097,35.783,79.845,79.922,79.845c44.14,0,79.922-35.747,79.922-79.845C423.493,402.818,414.97,383.316,401.134,368.96z"/>
</g>
<path style="opacity:0.1;enable-background:new    ;" d="M296.349,424.318c0-21.499,8.512-41.006,22.344-55.359h-32.685
	c-13.836,14.355-22.359,33.857-22.359,55.359c0,44.097,35.783,79.845,79.922,79.845c5.604,0,11.073-0.582,16.351-1.678
	C323.625,494.946,296.349,462.817,296.349,424.318z"/>
<path style="fill:#FFFFFF;" d="M343.571,478.644c-8.266,0-16.2-1.794-23.583-5.333c-4.156-1.992-6.461-6.524-5.625-11.06
	c0.836-4.536,4.606-7.945,9.197-8.322c12.769-1.044,24.827-6.63,33.952-15.727c9.119-9.091,14.728-21.109,15.794-33.841
	c0.383-4.587,3.787-8.349,8.308-9.185c0.621-0.114,1.243-0.17,1.856-0.17c3.86,0,7.461,2.2,9.183,5.776
	c3.548,7.372,5.349,15.291,5.349,23.536C398.001,454.274,373.584,478.644,343.571,478.644z"/>
<path style="opacity:0.1;enable-background:new    ;" d="M121.209,297.406c0-21.499,8.512-41.006,22.344-55.359h-32.685
	c-13.835,14.355-22.359,33.857-22.359,55.359c0,44.097,35.783,79.845,79.922,79.845c5.604,0,11.072-0.582,16.35-1.678
	C148.485,368.034,121.209,335.904,121.209,297.406z"/>
<path style="fill:#FFFFFF;" d="M168.43,351.731c-8.266,0-16.2-1.794-23.583-5.333c-4.156-1.992-6.461-6.524-5.625-11.06
	c0.836-4.535,4.606-7.945,9.197-8.322c12.769-1.044,24.827-6.63,33.952-15.727c9.119-9.091,14.728-21.109,15.794-33.841
	c0.383-4.587,3.787-8.349,8.308-9.185c0.621-0.114,1.242-0.17,1.856-0.17c3.86,0,7.461,2.199,9.183,5.776
	c3.548,7.372,5.349,15.291,5.349,23.536C222.861,327.361,198.443,351.731,168.43,351.731z"/>
<path style="opacity:0.1;enable-background:new    ;" d="M359.994,273.544l-4.14-7.163c-3.551,2.258-7.763,3.571-12.284,3.571
	c-4.521,0-8.732-1.313-12.284-3.571l-54.667,94.595c-0.952,1.647-0.952,3.676,0,5.324s2.71,2.661,4.614,2.661h32.846
	c-1.904,0-3.662-1.015-4.614-2.661s-0.952-3.677,0-5.324L359.994,273.544z"/>
<path style="fill:#EFBA50;" d="M180.714,139.469c-3.551,2.258-7.763,3.571-12.284,3.571c-4.521,0-8.732-1.313-12.284-3.571
	l-54.667,94.595c-0.952,1.647-0.952,3.676,0,5.323s2.71,2.661,4.614,2.661h124.673c1.904,0,3.662-1.015,4.614-2.661
	c0.952-1.647,0.952-3.677,0-5.323L180.714,139.469z"/>
<path style="opacity:0.1;enable-background:new    ;" d="M184.652,146.284l-3.939-6.815c-3.55,2.258-7.762,3.571-12.283,3.571
	s-8.732-1.313-12.284-3.571l-54.667,94.595c-0.952,1.647-0.952,3.676,0,5.323c0.952,1.647,2.71,2.661,4.614,2.661h32.444
	c-1.904,0-3.662-1.015-4.614-2.661c-0.952-1.647-0.952-3.677,0-5.323L184.652,146.284z"/>
<g>
	<ellipse style="fill:#37C4B3;" cx="168.428" cy="120.153" rx="22.911" ry="22.888"/>
	<ellipse style="fill:#37C4B3;" cx="343.573" cy="247.066" rx="22.911" ry="22.888"/>
</g>
<path style="opacity:0.1;enable-background:new    ;" d="M342.325,247.064c0-8.726,4.889-16.31,12.079-20.172
	c-3.226-1.733-6.913-2.718-10.832-2.718c-12.653,0-22.911,10.248-22.911,22.89s10.258,22.889,22.911,22.889
	c3.919,0,7.607-0.984,10.832-2.718C347.214,263.374,342.325,255.79,342.325,247.064z"/>
<path style="opacity:0.1;enable-background:new    ;" d="M331.876,168.284c0-14.694,9.464-27.173,22.63-31.705
	c-3.428-1.18-7.105-1.83-10.936-1.83c-18.539,0-33.567,15.014-33.567,33.535c0,18.521,15.029,33.534,33.567,33.534
	c3.831,0,7.508-0.65,10.936-1.831C341.339,195.455,331.876,182.978,331.876,168.284z"/>
<path style="opacity:0.1;enable-background:new    ;" d="M167.184,120.152c0-8.726,4.889-16.31,12.079-20.172
	c-3.226-1.733-6.913-2.718-10.832-2.718c-12.653,0-22.911,10.248-22.911,22.89s10.258,22.888,22.911,22.888
	c3.919,0,7.607-0.984,10.832-2.717C172.073,136.462,167.184,128.878,167.184,120.152z"/>
<path style="opacity:0.1;enable-background:new    ;" d="M156.735,41.372c0-14.694,9.464-27.173,22.63-31.705
	c-3.428-1.18-7.105-1.831-10.936-1.831c-18.539,0-33.567,15.014-33.567,33.535s15.029,33.534,33.567,33.534
	c3.831,0,7.508-0.65,10.936-1.831C166.199,68.543,156.735,56.066,156.735,41.372z"/>
<path d="M414.846,373.265c0.953-0.882,1.796-1.892,2.461-3.044c2.348-4.06,2.348-9.106,0-13.167l-51.388-88.919
	c5.202-5.506,8.4-12.919,8.4-21.07c0-14.237-9.741-26.239-22.911-29.712v-8.44c6.094-1.161,11.837-3.677,16.901-7.452
	c3.47-2.587,4.186-7.496,1.6-10.967c-2.588-3.47-7.498-4.188-10.967-1.6c-4.465,3.328-9.778,5.087-15.37,5.087
	c-14.188,0-25.731-11.528-25.731-25.697c0-14.17,11.543-25.698,25.731-25.698c14.188,0,25.731,11.528,25.731,25.698
	c0,1.33-0.102,2.668-0.304,3.974c-0.66,4.278,2.272,8.281,6.549,8.941c4.267,0.66,8.281-2.271,8.941-6.548
	c0.324-2.096,0.488-4.238,0.488-6.367c0-22.813-18.573-41.372-41.404-41.372s-41.404,18.559-41.404,41.372
	c0,20.135,14.473,36.947,33.567,40.618v8.451c-13.17,3.472-22.911,15.475-22.911,29.712c0,8.151,3.199,15.565,8.4,21.07
	l-51.388,88.919c-2.348,4.06-2.348,9.106,0,13.168c0.666,1.151,1.508,2.162,2.461,3.044c-10.361,14.389-16.484,32.015-16.484,51.055
	c0,48.347,39.369,87.682,87.759,87.682c31.938,0,61.386-17.364,76.851-45.317c0.63-1.138,1.238-2.296,1.807-3.442
	c1.926-3.877,0.344-8.58-3.533-10.504c-3.877-1.924-8.58-0.343-10.504,3.533c-0.467,0.939-0.966,1.89-1.484,2.825
	c-12.706,22.964-36.897,37.23-63.136,37.23c-39.748,0-72.085-32.303-72.085-72.008c0-18.197,6.798-34.833,17.983-47.522h108.207
	c11.185,12.689,17.983,29.325,17.983,47.522c0,2.173-0.098,4.369-0.29,6.524c-0.387,4.31,2.795,8.119,7.105,8.505
	c4.323,0.378,8.119-2.795,8.505-7.106c0.235-2.619,0.354-5.285,0.354-7.923C431.33,405.279,425.206,387.653,414.846,373.265z
	 M343.571,232.012c8.312,0,15.075,6.752,15.075,15.053c0,8.3-6.763,15.052-15.075,15.052c-8.312,0-15.075-6.752-15.075-15.052
	C328.497,238.764,335.259,232.012,343.571,232.012z M357.258,284.472h-27.375l4.647-8.04c2.86,0.881,5.895,1.357,9.04,1.357
	c3.146,0,6.181-0.476,9.04-1.357L357.258,284.472z M320.825,300.146h45.492l5.4,9.345h-56.292L320.825,300.146z M285.586,361.123
	l6.324-10.942h71.716c4.329,0,7.837-3.509,7.837-7.837s-3.508-7.837-7.837-7.837h-62.658l5.4-9.345h74.408l20.782,35.959H285.586
	V361.123z"/>
<path d="M239.704,246.352c0.953-0.882,1.796-1.892,2.461-3.044c2.348-4.062,2.348-9.107,0-13.167l-51.388-88.92
	c5.202-5.506,8.4-12.919,8.4-21.07c0-14.237-9.741-26.239-22.911-29.712v-8.451c19.094-3.672,33.567-20.483,33.567-40.618
	C209.834,18.559,191.261,0,168.43,0s-41.404,18.559-41.404,41.372c0,20.135,14.473,36.947,33.567,40.618v8.451
	c-13.17,3.472-22.911,15.475-22.911,29.712c0,8.151,3.199,15.565,8.4,21.07l-51.387,88.918c-2.349,4.06-2.349,9.106-0.001,13.168
	c0.666,1.151,1.508,2.162,2.461,3.044c-10.361,14.389-16.484,32.015-16.484,51.055c0,48.347,39.369,87.682,87.759,87.682
	s87.759-39.333,87.759-87.682C256.19,278.367,250.065,260.741,239.704,246.352z M142.699,41.372
	c0-14.171,11.543-25.698,25.731-25.698c14.188,0,25.731,11.528,25.731,25.698s-11.543,25.697-25.731,25.697
	C154.242,67.069,142.699,55.542,142.699,41.372z M168.43,105.1c8.312,0,15.075,6.752,15.075,15.053
	c0,8.3-6.763,15.052-15.075,15.052s-15.075-6.752-15.075-15.052C153.356,111.852,160.118,105.1,168.43,105.1z M182.118,157.56
	h-27.375l4.647-8.04c2.86,0.881,5.895,1.357,9.04,1.357c3.146,0,6.181-0.476,9.04-1.357L182.118,157.56z M145.684,173.234h45.492
	l5.4,9.345h-56.292L145.684,173.234z M116.768,223.27h57.731c4.329,0,7.837-3.509,7.837-7.837c0-4.328-3.508-7.837-7.837-7.837
	h-48.672l5.4-9.345h74.408l5.4,9.345h-7.279c-4.329,0-7.837,3.509-7.837,7.837c0,4.328,3.508,7.837,7.837,7.837h16.337l6.324,10.942
	H110.444L116.768,223.27z M168.43,369.414c-39.748,0-72.085-32.302-72.085-72.008c0-18.197,6.798-34.833,17.983-47.522h108.207
	c11.185,12.689,17.983,29.325,17.983,47.522C240.516,337.112,208.178,369.414,168.43,369.414z"/>
</svg>