<?xml version="1.0" encoding="iso-8859-1"?>
<!-- Uploaded to: SVG Repo, www.svgrepo.com, Generator: SVG Repo Mixer Tools -->
<svg fill="#000000" height="800px" width="800px" version="1.1" id="Layer_1" xmlns="http://www.w3.org/2000/svg" xmlns:xlink="http://www.w3.org/1999/xlink" 
	 viewBox="0 0 512 512" xml:space="preserve">
<g>
	<g>
		<path d="M206.401,145.17c-12.966-3.547-13.608-4.183-17.178-16.999c-1.482-5.314-6.381-9.026-11.916-9.026
			s-10.434,3.711-11.916,9.028c-3.569,12.815-4.212,13.45-17.18,16.999c-5.353,1.467-9.093,6.355-9.093,11.886
			c-0.001,5.533,3.74,10.421,9.096,11.886c12.964,3.548,13.606,4.184,17.177,17c1.483,5.314,6.382,9.026,11.916,9.026
			c5.534,0,10.433-3.711,11.916-9.029c3.57-12.816,4.212-13.451,17.18-16.999c5.35-1.465,9.086-6.353,9.086-11.885
			C215.489,151.527,211.755,146.639,206.401,145.17z M177.307,172.16c-3.235-7.778-7.334-11.883-15.111-15.102
			c7.777-3.219,11.877-7.324,15.111-15.102c3.235,7.779,7.335,11.884,15.11,15.102C184.641,160.277,180.542,164.382,177.307,172.16z
			"/>
	</g>
</g>
<g>
	<g>
		<path d="M364.444,167.617c-9.902-2.708-10.021-2.826-12.744-12.596c-1.37-4.94-5.919-8.389-11.061-8.389
			c-5.143,0-9.692,3.45-11.061,8.383c-2.723,9.776-2.843,9.893-12.746,12.604c-4.971,1.362-8.442,5.901-8.442,11.038
			c0,5.136,3.469,9.675,8.445,11.04c9.9,2.708,10.02,2.826,12.74,12.599c1.372,4.938,5.922,8.387,11.063,8.387
			c5.14,0,9.688-3.449,11.059-8.381c2.725-9.779,2.845-9.897,12.755-12.608c4.963-1.365,8.43-5.904,8.43-11.037
			C372.883,173.519,369.415,168.982,364.444,167.617z M340.639,187.226c-2.088-3.871-4.703-6.489-8.57-8.571
			c3.866-2.081,6.482-4.7,8.569-8.569c2.088,3.87,4.704,6.489,8.57,8.57C345.343,180.739,342.727,183.356,340.639,187.226z"/>
	</g>
</g>
<g>
	<g>
		<path d="M301.75,67.721c-9.902-2.708-10.021-2.826-12.744-12.596c-1.37-4.94-5.919-8.389-11.061-8.389
			c-5.143,0-9.693,3.45-11.061,8.383c-2.723,9.776-2.843,9.893-12.746,12.604c-4.971,1.362-8.442,5.901-8.442,11.038
			c0,5.135,3.469,9.674,8.445,11.039c9.9,2.708,10.02,2.826,12.74,12.599c1.372,4.938,5.923,8.387,11.063,8.387
			c5.14,0,9.688-3.449,11.059-8.381c2.725-9.779,2.845-9.897,12.755-12.608c4.963-1.365,8.43-5.904,8.43-11.037
			C310.189,73.623,306.721,69.085,301.75,67.721z M277.945,87.331c-2.088-3.871-4.703-6.489-8.57-8.571
			c3.866-2.081,6.483-4.7,8.569-8.569c2.088,3.87,4.704,6.489,8.57,8.57C282.649,80.843,280.033,83.462,277.945,87.331z"/>
	</g>
</g>
<g>
	<g>
		<path d="M215.055,264.008c-8.004,0-14.516-6.501-14.516-14.492c0-4.328-3.508-7.837-7.837-7.837c-4.329,0-7.837,3.509-7.837,7.837
			c0,16.633,13.543,30.165,30.189,30.165c4.329,0,7.837-3.509,7.837-7.837C222.891,267.516,219.384,264.008,215.055,264.008z"/>
	</g>
</g>
<g>
	<g>
		<path d="M190.026,404.988c-10.29,0-18.663,8.373-18.663,18.664s8.373,18.664,18.663,18.664c10.291,0,18.663-8.373,18.663-18.664
			S200.316,404.988,190.026,404.988z M190.027,426.643c-1.649,0-2.989-1.342-2.989-2.99s1.341-2.99,2.989-2.99
			c1.648,0,2.99,1.342,2.99,2.99S191.676,426.643,190.027,426.643z"/>
	</g>
</g>
<g>
	<g>
		<path d="M121.399,404.988c-10.29,0-18.663,8.373-18.663,18.664s8.373,18.664,18.663,18.664c10.29,0,18.663-8.373,18.663-18.664
			S131.69,404.988,121.399,404.988z M121.4,426.643c-1.649,0-2.99-1.342-2.99-2.99s1.341-2.99,2.99-2.99
			c1.649,0,2.989,1.342,2.989,2.99S123.049,426.643,121.4,426.643z"/>
	</g>
</g>
<g>
	<g>
		<path d="M390.831,404.988c-10.29,0-18.663,8.373-18.663,18.664s8.373,18.664,18.663,18.664c10.29,0,18.663-8.373,18.663-18.664
			S401.121,404.988,390.831,404.988z M390.831,426.643c-1.649,0-2.989-1.342-2.989-2.99s1.341-2.99,2.989-2.99
			s2.989,1.342,2.989,2.99S392.479,426.643,390.831,426.643z"/>
	</g>
</g>
<g>
	<g>
		<path d="M321.973,404.988c-10.29,0-18.663,8.373-18.663,18.664s8.373,18.664,18.663,18.664c10.291,0,18.663-8.373,18.663-18.664
			S332.263,404.988,321.973,404.988z M321.974,426.643c-1.649,0-2.989-1.342-2.989-2.99s1.341-2.99,2.989-2.99
			s2.989,1.342,2.989,2.99S323.623,426.643,321.974,426.643z"/>
	</g>
</g>
<g>
	<g>
		<path d="M52.389,404.988c-10.29,0-18.663,8.373-18.663,18.664s8.373,18.664,18.663,18.664c10.291,0,18.663-8.373,18.663-18.664
			S62.679,404.988,52.389,404.988z M52.39,426.643c-1.649,0-2.989-1.342-2.989-2.99s1.341-2.99,2.989-2.99
			c1.649,0,2.989,1.342,2.989,2.99S54.039,426.643,52.39,426.643z"/>
	</g>
</g>
<g>
	<g>
		<path d="M459.611,404.988c-10.291,0-18.663,8.373-18.663,18.664s8.373,18.664,18.663,18.664s18.663-8.373,18.663-18.664
			S469.901,404.988,459.611,404.988z M459.61,426.643c-1.649,0-2.989-1.342-2.989-2.99s1.341-2.99,2.989-2.99
			s2.989,1.342,2.989,2.99S461.259,426.643,459.61,426.643z"/>
	</g>
</g>
<g>
	<g>
		<path d="M498.939,384.238h-17.345c0.057-0.918,0.088-1.841,0.088-2.768c0-24.255-19.751-43.989-44.029-43.989
			c-0.151,0-0.301,0.006-0.452,0.008c3.277-7.315,5.017-15.298,5.017-23.554c0-15.412-6.008-29.901-16.918-40.798
			c-20.015-19.993-49.896-26.036-76.116-15.391c-4.011,1.628-5.941,6.198-4.314,10.209c1.628,4.009,6.2,5.943,10.209,4.313
			c20.377-8.27,43.593-3.578,59.144,11.957c7.945,7.936,12.321,18.487,12.321,29.71c0,11.222-4.376,21.773-12.321,29.71
			c-12.512,12.5-32.876,12.502-45.39,0c-4.552-4.546-7.058-10.59-7.058-17.019c0-6.427,2.507-12.471,7.058-17.017
			c6.91-6.902,18.154-6.903,25.062,0c3.064,3.059,8.026,3.055,11.082-0.005c3.059-3.063,3.057-8.024-0.005-11.083
			c-13.016-13.003-34.198-13.003-47.217,0c-7.515,7.507-11.655,17.487-11.655,28.106c0,10.618,4.139,20.6,11.654,28.108
			c3.904,3.9,8.326,6.971,13.04,9.235c-5.627,5.266-9.547,12.332-10.822,20.269h-22.117c-0.237-0.325-0.494-0.639-0.788-0.933
			c-26.67-26.64-27.58-69.211-2.072-96.918c2.932-3.184,2.726-8.142-0.458-11.074c-3.185-2.932-8.143-2.726-11.074,0.459
			c-7.73,8.398-13.464,17.915-17.237,27.972c-1.72-2.908-3.651-5.779-5.814-8.592l-33.039-44.785
			c-0.548-0.74-1.178-1.401-1.849-2.011c3.467-10.949,13.735-18.911,25.831-18.911c11.086,0,20.106,9.005,20.106,20.073
			c0,7.99-6.512,14.492-14.517,14.492c-4.329,0-7.837,3.509-7.837,7.837s3.508,7.837,7.837,7.837
			c16.647,0,30.19-13.532,30.19-30.165c0-19.711-16.051-35.747-35.779-35.747c-2.932,0-5.795,0.298-8.561,0.861
			c0.101-1.093,0.171-2.193,0.171-3.304c0-13.948-8.176-26.781-20.826-32.691c-3.814-1.786-8.459-1.786-12.275-0.002
			c-12.653,5.912-20.829,18.744-20.829,32.693c0,1.111,0.07,2.211,0.171,3.305c-2.767-0.564-5.631-0.862-8.563-0.862
			c-7.885,0-15.362,2.513-21.626,7.268c-3.447,2.616-4.12,7.534-1.503,10.98c2.617,3.448,7.534,4.122,10.981,1.504
			c3.514-2.669,7.716-4.078,12.149-4.078c12.132,0,22.427,8.006,25.865,19.006c-0.634,0.587-1.233,1.218-1.752,1.923l-33.01,44.73
			c-2.232,2.856-4.216,5.775-5.981,8.734c-4.234-11.395-10.896-21.848-19.756-30.698c-27.38-27.349-71.93-27.349-99.308,0
			c-4.053,4.048-7.466,8.641-10.141,13.653c-2.04,3.818-0.597,8.566,3.22,10.605c3.818,2.038,8.567,0.595,10.604-3.22
			c1.948-3.647,4.435-6.992,7.392-9.947c21.273-21.248,55.884-21.248,77.156,0c13.247,13.233,20.543,30.826,20.543,49.54
			c0,18.576-8.323,37.925-21.732,50.473H151.57c-1.262-7.866-5.121-14.871-10.664-20.123c4.828-2.277,9.353-5.4,13.34-9.382
			c7.515-7.508,11.654-17.49,11.654-28.108s-4.14-20.599-11.654-28.106c-13.018-13.004-34.198-13.003-47.217,0
			c-3.063,3.059-3.065,8.021-0.005,11.083c3.059,3.062,8.022,3.065,11.083,0.005c6.909-6.904,18.152-6.901,25.063,0
			c4.551,4.546,7.057,10.589,7.057,17.017s-2.506,12.473-7.058,17.019c-12.512,12.5-32.876,12.502-45.39,0
			c-6.899-6.891-11.208-16.016-12.131-25.696c-0.411-4.308-4.238-7.472-8.546-7.055c-4.309,0.411-7.468,4.238-7.056,8.546
			c0.599,6.271,2.243,12.368,4.795,18.059c-0.316-0.006-0.63-0.018-0.946-0.018c-24.277,0-44.029,19.733-44.029,43.989
			c0,0.928,0.03,1.851,0.088,2.768H13.061C5.859,384.238,0,390.096,0,397.299v54.904c0,7.203,5.859,13.061,13.061,13.061H401.24
			c4.329,0,7.837-3.509,7.837-7.837c0-4.328-3.508-7.837-7.837-7.837H15.673v-49.68h208.816
			c1.208,16.334,14.874,29.257,31.511,29.257s30.303-12.923,31.511-29.257h208.816v49.68h-66.873c-4.329,0-7.837,3.509-7.837,7.837
			c0,4.328,3.508,7.837,7.837,7.837h69.486c7.202,0,13.061-5.859,13.061-13.061v-54.904
			C512,390.096,506.141,384.238,498.939,384.238z M81.364,384.238H45.674c-0.09-0.914-0.136-1.838-0.136-2.768
			c0-15.613,12.721-28.316,28.355-28.316c8.092,0,15.394,3.41,20.565,8.859C87.618,367.416,82.804,375.268,81.364,384.238z
			 M97.415,384.238c2.443-8.203,10.054-14.207,19.053-14.207s16.61,6.004,19.053,14.207H97.415z M244.708,211.326
			c0-7.703,4.414-14.805,11.292-18.251c6.878,3.445,11.292,10.549,11.292,18.251c0,7.7-4.409,14.799-11.292,18.25
			C249.121,226.132,244.708,219.03,244.708,211.326z M194.696,384.238c3.751-5.128,6.91-10.611,9.409-16.378
			c2.449,3.964,5.433,7.718,8.956,11.194c1.898,1.87,3.901,3.598,5.994,5.184H194.696z M256,413.495
			c-8.787,0-15.935-7.148-15.935-15.935s7.148-15.935,15.935-15.935c8.787,0,15.935,7.148,15.935,15.935
			C271.935,406.346,264.787,413.495,256,413.495z M256.109,358.908c-6.218-0.027-12.056-2.423-16.44-6.747
			c-8.673-8.559-7.936-21.219,1.981-33.877c0.182-0.233,0.363-0.469,0.512-0.675l13.961-18.917l13.97,18.938l0.296,0.393
			c0.008,0.011,0.075,0.099,0.084,0.11c9.752,12.651,10.557,25.693,2.107,34.034C268.202,356.484,262.354,358.877,256.109,358.908z
			 M278.317,375.198c-1.652-1.649-3.491-3.111-5.472-4.365c3.937-1.858,7.567-4.378,10.739-7.508
			c14.101-13.917,13.821-35.924-0.73-54.803l-20.426-27.682c-1.476-2.003-3.817-3.185-6.305-3.185h-0.001
			c-2.488,0-4.829,1.182-6.305,3.183l-20.29,27.492c-0.076,0.104-0.155,0.207-0.227,0.297c-14.849,18.953-15.101,40.42-0.64,54.69
			c3.138,3.094,6.721,5.592,10.601,7.445c-2.003,1.256-3.859,2.726-5.529,4.384c-3.493-1.96-6.748-4.379-9.665-7.255
			c-16.678-16.458-16.643-41.865,0.088-63.221c0.046-0.06,0.092-0.119,0.136-0.179l31.775-43.056l31.781,43.08
			c0.032,0.044,0.066,0.088,0.099,0.132c16.592,21.528,16.641,46.944,0.123,63.244C285.13,370.794,281.845,373.229,278.317,375.198z
			 M293.077,384.238c2.095-1.587,4.101-3.313,6-5.186c3.479-3.434,6.429-7.147,8.853-11.076c2.476,5.671,5.61,11.123,9.372,16.262
			H293.077z M376.026,384.238c2.443-8.203,10.054-14.207,19.053-14.207s16.611,6.004,19.053,14.207H376.026z M465.873,384.238
			h-35.698c-1.442-8.966-6.247-16.822-13.086-22.226c5.169-5.449,12.472-8.859,20.565-8.859c15.635,0,28.355,12.702,28.355,28.316
			C466.008,382.399,465.962,383.322,465.873,384.238z"/>
	</g>
</g>
</svg>