<?xml version="1.0" encoding="iso-8859-1"?>
<!-- Uploaded to: SVG Repo, www.svgrepo.com, Generator: SVG Repo Mixer Tools -->
<svg height="800px" width="800px" version="1.1" id="Layer_1" xmlns="http://www.w3.org/2000/svg" xmlns:xlink="http://www.w3.org/1999/xlink" 
	 viewBox="0 0 512 512" xml:space="preserve">
<path style="fill:#A87B2C;" d="M258.818,185.733c-0.892-0.417-1.855-0.627-2.818-0.627c-0.963,0-1.926,0.209-2.818,0.627
	c-9.909,4.63-16.31,14.675-16.31,25.593c0,10.918,6.401,20.963,16.31,25.592c0.892,0.418,1.855,0.627,2.818,0.627
	c0.963,0,1.927-0.208,2.818-0.627c9.909-4.629,16.31-14.673,16.31-25.592C275.129,200.408,268.728,190.363,258.818,185.733z"/>
<path style="fill:#DE9900;" d="M294.154,299.865l-33.08-44.842c-1.165-1.576-3.026-2.51-5.007-2.51c-1.981,0-3.843,0.934-5.005,2.51
	l-33.074,44.818c-19.312,24.652-19.083,54.23,0.577,73.632c5.041,4.97,10.92,8.82,17.321,11.426
	c4.209-6.673,11.642-11.11,20.115-11.11c8.491,0,15.937,4.455,20.141,11.152c6.446-2.606,12.364-6.469,17.432-11.468
	C313.047,354.256,313.281,324.683,294.154,299.865z"/>
<path style="fill:#E28883;" d="M256.11,366.745c-8.275-0.027-16.084-3.225-21.946-9.005c-11.608-11.455-11.111-28.425,1.307-44.276
	c0.131-0.167,0.26-0.336,0.385-0.507l20.267-27.462l20.275,27.485c0.092,0.124,0.187,0.248,0.28,0.371
	c12.175,15.796,12.725,33.224,1.401,44.399C272.231,363.515,264.428,366.713,256.11,366.745z"/>
<path style="opacity:0.1;enable-background:new    ;" d="M256.01,357.74c-11.608-11.455-11.111-28.425,1.307-44.276
	c0.131-0.167,0.26-0.336,0.385-0.507l9.341-12.658l-10.921-14.804l-20.267,27.462c-0.124,0.17-0.254,0.34-0.385,0.507
	c-12.419,15.851-12.915,32.821-1.307,44.276c5.862,5.78,13.671,8.978,21.946,9.005c3.8-0.015,7.489-0.697,10.937-1.976
	C262.952,363.248,259.193,360.879,256.01,357.74z"/>
<g>
	<path style="fill:#FFC753;" d="M204.333,152.731c-15.602-4.268-18.353-6.995-22.66-22.454c-0.543-1.947-2.329-3.294-4.368-3.294
		c-2.041,0-3.824,1.347-4.368,3.294c-4.306,15.459-7.061,18.185-22.658,22.454c-1.965,0.539-3.329,2.308-3.329,4.328
		c0,2.019,1.364,3.789,3.329,4.327c15.596,4.268,18.352,6.997,22.658,22.454c0.543,1.946,2.327,3.295,4.368,3.295
		c2.039,0,3.824-1.349,4.368-3.295c4.306-15.457,7.057-18.185,22.66-22.454c1.963-0.538,3.321-2.308,3.321-4.327
		C207.653,155.039,206.296,153.27,204.333,152.731z"/>
	<path style="fill:#FFC753;" d="M362.376,175.176c-12.547-3.432-14.761-5.626-18.226-18.059c-0.435-1.566-1.874-2.649-3.51-2.649
		c-1.64,0-3.077,1.083-3.512,2.649c-3.463,12.433-5.679,14.626-18.224,18.059c-1.58,0.433-2.675,1.857-2.675,3.481
		c0,1.624,1.096,3.047,2.675,3.481c12.545,3.431,14.761,5.627,18.224,18.06c0.435,1.564,1.871,2.649,3.512,2.649
		c1.636,0,3.075-1.085,3.51-2.649c3.465-12.433,5.68-14.629,18.226-18.06c1.578-0.434,2.672-1.857,2.672-3.481
		C365.048,177.032,363.954,175.609,362.376,175.176z"/>
	<path style="fill:#FFC753;" d="M299.682,75.28c-12.547-3.432-14.761-5.626-18.226-18.059c-0.435-1.566-1.874-2.649-3.51-2.649
		c-1.641,0-3.077,1.083-3.512,2.649c-3.463,12.433-5.679,14.626-18.224,18.059c-1.58,0.433-2.676,1.857-2.676,3.481
		s1.096,3.047,2.676,3.481c12.545,3.431,14.761,5.627,18.224,18.06c0.435,1.564,1.871,2.649,3.512,2.649
		c1.636,0,3.075-1.085,3.51-2.649c3.465-12.433,5.68-14.629,18.226-18.06c1.578-0.434,2.672-1.857,2.672-3.481
		C302.353,77.137,301.26,75.713,299.682,75.28z"/>
</g>
<path style="fill:#DE9900;" d="M498.939,392.074h-219.81c0.416,1.762,0.643,3.597,0.643,5.486c0,13.128-10.642,23.771-23.771,23.771
	c-13.128,0-23.771-10.643-23.771-23.771c0-1.889,0.227-3.724,0.643-5.486H13.061c-2.873,0-5.224,2.351-5.224,5.224v54.904
	c0,2.873,2.351,5.224,5.224,5.224h485.878c2.873,0,5.224-2.351,5.224-5.224v-54.904
	C504.163,394.425,501.812,392.074,498.939,392.074z"/>
<path style="opacity:0.1;enable-background:new    ;" d="M39.706,452.202v-54.904c0-2.873,2.351-5.224,5.224-5.224H13.061
	c-2.873,0-5.224,2.351-5.224,5.224v54.904c0,2.873,2.351,5.224,5.224,5.224h31.869C42.057,457.427,39.706,455.076,39.706,452.202z"
	/>
<g>
	<circle style="fill:#FFFFFF;" cx="190.025" cy="423.653" r="10.826"/>
	<circle style="fill:#FFFFFF;" cx="121.396" cy="423.653" r="10.826"/>
	<circle style="fill:#FFFFFF;" cx="52.391" cy="423.653" r="10.826"/>
	<circle style="fill:#FFFFFF;" cx="459.609" cy="423.653" r="10.826"/>
	<circle style="fill:#FFFFFF;" cx="390.834" cy="423.653" r="10.826"/>
	<circle style="fill:#FFFFFF;" cx="321.975" cy="423.653" r="10.826"/>
</g>
<circle style="fill:#E3DAB3;" cx="256" cy="397.562" r="23.771"/>
<path style="opacity:0.1;enable-background:new    ;" d="M253.91,397.56c0-9.221,5.255-17.212,12.931-21.153
	c-3.251-1.67-6.935-2.618-10.841-2.618c-13.128,0-23.771,10.644-23.771,23.771c0,13.128,10.643,23.771,23.771,23.771
	c3.906,0,7.59-0.949,10.841-2.619C259.165,414.772,253.91,406.781,253.91,397.56z"/>
<path d="M148.214,168.944c12.964,3.548,13.606,4.184,17.177,17.001c1.483,5.314,6.382,9.026,11.916,9.026s10.433-3.711,11.916-9.029
	c3.57-12.816,4.212-13.451,17.18-16.999c5.35-1.465,9.086-6.353,9.086-11.885c0-5.53-3.734-10.418-9.089-11.887
	c-12.966-3.547-13.608-4.183-17.178-16.999c-1.482-5.314-6.381-9.026-11.916-9.026s-10.434,3.711-11.916,9.028
	c-3.569,12.815-4.212,13.45-17.18,16.999c-5.353,1.467-9.093,6.355-9.093,11.886C139.117,162.591,142.857,167.479,148.214,168.944z
	 M177.307,141.956c3.235,7.779,7.335,11.884,15.11,15.102c-7.776,3.219-11.875,7.324-15.11,15.102
	c-3.235-7.778-7.334-11.883-15.111-15.102C169.973,153.839,174.073,149.734,177.307,141.956z"/>
<path d="M316.835,189.697c9.9,2.708,10.02,2.826,12.74,12.599c1.372,4.938,5.922,8.387,11.063,8.387
	c5.14,0,9.688-3.449,11.059-8.381c2.725-9.779,2.845-9.897,12.755-12.608c4.963-1.365,8.43-5.904,8.43-11.037
	c0-5.138-3.468-9.676-8.44-11.04c-9.902-2.708-10.021-2.826-12.744-12.596c-1.37-4.94-5.919-8.389-11.061-8.389
	c-5.143,0-9.692,3.45-11.061,8.383c-2.723,9.776-2.843,9.893-12.746,12.604c-4.971,1.361-8.442,5.901-8.442,11.038
	C308.39,183.792,311.859,188.331,316.835,189.697z M340.638,170.086c2.088,3.87,4.704,6.489,8.57,8.57
	c-3.865,2.082-6.482,4.7-8.569,8.57c-2.088-3.871-4.703-6.489-8.57-8.571C335.935,176.574,338.551,173.955,340.638,170.086z"/>
<path d="M254.141,89.8c9.9,2.708,10.02,2.826,12.74,12.599c1.372,4.938,5.923,8.387,11.063,8.387c5.14,0,9.688-3.449,11.059-8.381
	c2.725-9.779,2.845-9.897,12.755-12.608c4.963-1.365,8.43-5.904,8.43-11.037c0-5.138-3.468-9.676-8.44-11.039
	c-9.902-2.708-10.021-2.826-12.744-12.596c-1.37-4.94-5.919-8.389-11.061-8.389c-5.143,0-9.692,3.45-11.061,8.383
	c-2.723,9.776-2.843,9.893-12.746,12.604c-4.971,1.362-8.442,5.901-8.442,11.038C245.696,83.895,249.165,88.434,254.141,89.8z
	 M277.944,70.191c2.088,3.87,4.704,6.489,8.57,8.57c-3.865,2.082-6.482,4.701-8.569,8.57c-2.088-3.871-4.703-6.489-8.57-8.571
	C273.241,76.678,275.857,74.06,277.944,70.191z"/>
<path d="M184.865,249.516c0,16.633,13.543,30.165,30.189,30.165c4.329,0,7.837-3.509,7.837-7.837s-3.508-7.837-7.837-7.837
	c-8.004,0-14.516-6.501-14.516-14.492c0-4.328-3.508-7.837-7.837-7.837S184.865,245.188,184.865,249.516z"/>
<path d="M171.363,423.652c0,10.291,8.373,18.664,18.663,18.664c10.291,0,18.663-8.373,18.663-18.664s-8.373-18.664-18.663-18.664
	S171.363,413.361,171.363,423.652z M193.017,423.652c0,1.649-1.341,2.991-2.989,2.991s-2.989-1.342-2.989-2.991
	c0-1.649,1.341-2.99,2.989-2.99C191.675,420.662,193.017,422.003,193.017,423.652z"/>
<path d="M102.736,423.652c0,10.291,8.373,18.664,18.663,18.664s18.663-8.373,18.663-18.664s-8.373-18.664-18.663-18.664
	S102.736,413.361,102.736,423.652z M124.39,423.652c0,1.649-1.341,2.991-2.989,2.991c-1.649,0-2.989-1.342-2.989-2.991
	c0-1.649,1.341-2.99,2.989-2.99C123.049,420.662,124.39,422.003,124.39,423.652z"/>
<path d="M372.168,423.652c0,10.291,8.373,18.664,18.663,18.664c10.29,0,18.663-8.373,18.663-18.664s-8.373-18.664-18.663-18.664
	C380.54,404.988,372.168,413.361,372.168,423.652z M393.82,423.652c0,1.649-1.341,2.991-2.989,2.991
	c-1.649,0-2.989-1.342-2.989-2.991c0-1.649,1.341-2.99,2.989-2.99C392.479,420.662,393.82,422.003,393.82,423.652z"/>
<path d="M303.31,423.652c0,10.291,8.373,18.664,18.663,18.664c10.291,0,18.663-8.373,18.663-18.664s-8.373-18.664-18.663-18.664
	C311.683,404.988,303.31,413.361,303.31,423.652z M324.963,423.652c0,1.649-1.341,2.991-2.989,2.991
	c-1.649,0-2.989-1.342-2.989-2.991c0-1.649,1.341-2.99,2.989-2.99C323.623,420.662,324.963,422.003,324.963,423.652z"/>
<path d="M33.726,423.652c0,10.291,8.373,18.664,18.663,18.664c10.291,0,18.663-8.373,18.663-18.664s-8.373-18.664-18.663-18.664
	S33.726,413.361,33.726,423.652z M55.38,423.652c0,1.649-1.341,2.991-2.989,2.991s-2.989-1.342-2.989-2.991
	c0-1.649,1.341-2.99,2.989-2.99S55.38,422.003,55.38,423.652z"/>
<path d="M478.274,423.652c0-10.291-8.373-18.664-18.663-18.664c-10.291,0-18.663,8.373-18.663,18.664s8.373,18.664,18.663,18.664
	C469.901,442.316,478.274,433.944,478.274,423.652z M456.62,423.652c0-1.649,1.341-2.99,2.989-2.99s2.989,1.342,2.989,2.99
	c0,1.649-1.341,2.991-2.989,2.991S456.62,425.301,456.62,423.652z"/>
<path d="M498.939,384.238h-17.345c0.057-0.918,0.088-1.841,0.088-2.768c0-24.255-19.751-43.989-44.029-43.989
	c-0.151,0-0.301,0.006-0.452,0.008c3.277-7.315,5.017-15.298,5.017-23.554c0-15.412-6.008-29.901-16.918-40.798
	c-20.015-19.993-49.896-26.036-76.116-15.391c-4.011,1.628-5.941,6.198-4.314,10.209c1.628,4.009,6.2,5.943,10.209,4.313
	c20.377-8.27,43.593-3.578,59.144,11.957c7.945,7.936,12.321,18.487,12.321,29.71c0,11.222-4.376,21.773-12.321,29.71
	c-12.512,12.5-32.876,12.502-45.39,0c-4.552-4.546-7.058-10.59-7.058-17.019c0-6.427,2.507-12.471,7.058-17.017
	c6.91-6.902,18.154-6.903,25.062,0c3.064,3.059,8.026,3.055,11.082-0.005c3.059-3.063,3.057-8.024-0.005-11.083
	c-13.016-13.003-34.198-13.003-47.217,0c-7.515,7.507-11.655,17.487-11.655,28.106c0,10.618,4.139,20.6,11.654,28.108
	c3.904,3.9,8.326,6.97,13.04,9.235c-5.627,5.266-9.547,12.332-10.822,20.269h-22.117c-0.237-0.325-0.494-0.639-0.788-0.933
	c-26.67-26.64-27.58-69.211-2.072-96.918c2.932-3.184,2.726-8.142-0.458-11.074c-3.185-2.932-8.143-2.726-11.074,0.459
	c-7.73,8.398-13.464,17.915-17.237,27.972c-1.72-2.908-3.651-5.779-5.814-8.592l-33.039-44.785c-0.548-0.74-1.178-1.401-1.849-2.011
	c3.467-10.949,13.735-18.911,25.831-18.911c11.086,0,20.106,9.005,20.106,20.074c0,7.99-6.512,14.492-14.517,14.492
	c-4.329,0-7.837,3.509-7.837,7.837c0,4.328,3.508,7.837,7.837,7.837c16.647,0,30.19-13.533,30.19-30.165
	c0-19.711-16.051-35.747-35.779-35.747c-2.932,0-5.795,0.298-8.561,0.861c0.101-1.093,0.171-2.193,0.171-3.304
	c0-13.948-8.176-26.781-20.826-32.691c-3.814-1.786-8.459-1.786-12.275-0.002c-12.653,5.912-20.829,18.744-20.829,32.693
	c0,1.111,0.07,2.211,0.171,3.305c-2.767-0.564-5.631-0.862-8.563-0.862c-7.885,0-15.362,2.513-21.626,7.268
	c-3.447,2.616-4.12,7.534-1.503,10.98c2.617,3.448,7.534,4.122,10.981,1.504c3.514-2.669,7.716-4.078,12.149-4.078
	c12.132,0,22.427,8.006,25.865,19.006c-0.634,0.587-1.233,1.218-1.752,1.923l-33.01,44.73c-2.232,2.856-4.216,5.775-5.981,8.734
	c-4.234-11.395-10.896-21.848-19.756-30.698c-27.38-27.349-71.93-27.349-99.308,0c-4.053,4.048-7.466,8.641-10.141,13.653
	c-2.04,3.818-0.597,8.566,3.22,10.605c3.818,2.038,8.567,0.595,10.604-3.22c1.948-3.647,4.435-6.992,7.392-9.947
	c21.273-21.248,55.884-21.248,77.156,0c13.247,13.233,20.543,30.826,20.543,49.54c0,18.576-8.323,37.925-21.732,50.473H151.57
	c-1.262-7.866-5.121-14.871-10.664-20.123c4.828-2.277,9.353-5.4,13.34-9.382c7.515-7.508,11.654-17.49,11.654-28.108
	c0-10.618-4.14-20.599-11.654-28.106c-13.018-13.004-34.198-13.003-47.217,0c-3.063,3.059-3.065,8.021-0.005,11.083
	c3.059,3.062,8.022,3.065,11.083,0.005c6.909-6.904,18.152-6.901,25.063,0c4.551,4.546,7.057,10.589,7.057,17.017
	s-2.506,12.473-7.058,17.019c-12.512,12.5-32.876,12.502-45.39,0c-6.899-6.891-11.208-16.016-12.131-25.696
	c-0.411-4.308-4.238-7.472-8.546-7.055c-4.309,0.411-7.468,4.238-7.056,8.546c0.599,6.271,2.243,12.368,4.795,18.059
	c-0.316-0.006-0.63-0.018-0.946-0.018c-24.277,0-44.029,19.733-44.029,43.989c0,0.928,0.03,1.851,0.088,2.768H13.061
	C5.859,384.238,0,390.096,0,397.299v54.904c0,7.202,5.859,13.061,13.061,13.061H401.24c4.329,0,7.837-3.509,7.837-7.837
	s-3.508-7.837-7.837-7.837H15.673v-49.68h208.816c1.208,16.334,14.874,29.257,31.511,29.257s30.303-12.923,31.511-29.257h208.816
	v49.68h-66.873c-4.329,0-7.837,3.509-7.837,7.837s3.508,7.837,7.837,7.837h69.486c7.202,0,13.061-5.859,13.061-13.061v-54.904
	C512,390.096,506.141,384.238,498.939,384.238z M81.364,384.238H45.674c-0.09-0.914-0.136-1.838-0.136-2.768
	c0-15.613,12.721-28.316,28.355-28.316c8.092,0,15.394,3.41,20.565,8.859C87.618,367.416,82.804,375.268,81.364,384.238z
	 M97.415,384.238c2.443-8.204,10.054-14.207,19.053-14.207s16.61,6.004,19.053,14.207L97.415,384.238L97.415,384.238z
	 M244.708,211.326c0-7.703,4.414-14.805,11.292-18.251c6.878,3.445,11.292,10.549,11.292,18.251c0,7.7-4.409,14.799-11.292,18.25
	C249.121,226.132,244.708,219.03,244.708,211.326z M194.696,384.238c3.751-5.128,6.91-10.611,9.409-16.378
	c2.449,3.964,5.433,7.718,8.956,11.194c1.898,1.87,3.901,3.598,5.994,5.184H194.696z M256,413.495
	c-8.787,0-15.935-7.148-15.935-15.935c0-8.787,7.148-15.935,15.935-15.935s15.935,7.148,15.935,15.935
	C271.935,406.346,264.787,413.495,256,413.495z M256.109,358.908c-6.218-0.027-12.056-2.423-16.44-6.747
	c-8.673-8.559-7.936-21.219,1.981-33.877c0.182-0.233,0.363-0.469,0.512-0.675l13.961-18.917l13.97,18.938l0.296,0.393
	c0.008,0.011,0.075,0.099,0.084,0.11c9.752,12.651,10.557,25.693,2.107,34.034C268.202,356.484,262.354,358.877,256.109,358.908z
	 M278.317,375.198c-1.652-1.649-3.491-3.111-5.472-4.365c3.937-1.858,7.567-4.378,10.739-7.508
	c14.101-13.917,13.821-35.924-0.73-54.803l-20.426-27.682c-1.476-2.003-3.817-3.185-6.305-3.185h-0.001
	c-2.488,0-4.828,1.182-6.305,3.183l-20.29,27.492c-0.076,0.104-0.155,0.207-0.227,0.297c-14.849,18.953-15.101,40.42-0.639,54.69
	c3.138,3.094,6.721,5.592,10.6,7.445c-2.003,1.256-3.859,2.726-5.529,4.384c-3.493-1.96-6.748-4.379-9.665-7.255
	c-16.678-16.458-16.643-41.865,0.088-63.22c0.046-0.06,0.092-0.119,0.136-0.179l31.775-43.056l31.781,43.08
	c0.032,0.044,0.066,0.088,0.099,0.132c16.592,21.528,16.641,46.944,0.123,63.243C285.13,370.794,281.845,373.229,278.317,375.198z
	 M293.077,384.238c2.095-1.587,4.101-3.313,6-5.186c3.479-3.434,6.429-7.147,8.853-11.076c2.476,5.671,5.61,11.123,9.372,16.262
	L293.077,384.238L293.077,384.238z M376.026,384.238c2.443-8.204,10.054-14.207,19.053-14.207s16.611,6.004,19.053,14.207
	L376.026,384.238L376.026,384.238z M465.873,384.238h-35.698c-1.442-8.966-6.247-16.822-13.086-22.226
	c5.169-5.449,12.472-8.859,20.565-8.859c15.635,0,28.355,12.702,28.355,28.316C466.008,382.399,465.962,383.322,465.873,384.238z"/>
</svg>